<?xml version="1.0" standalone="no"?>
<!DOCTYPE svg PUBLIC "-//W3C//DTD SVG 20010904//EN"
 "http://www.w3.org/TR/2001/REC-SVG-20010904/DTD/svg10.dtd">
<svg version="1.0" xmlns="http://www.w3.org/2000/svg"
 width="350.000000pt" height="350.000000pt" viewBox="0 0 350.000000 350.000000"
 preserveAspectRatio="xMidYMid meet">
<metadata>
Created by potrace 1.14, written by Peter Selinger 2001-2017
</metadata>
<g transform="translate(0.000000,350.000000) scale(0.100000,-0.100000)"
fill="#000000" stroke="none">
<path d="M1757 3334 c-34 -19 -127 -158 -201 -304 -80 -156 -129 -310 -161
-511 -23 -146 -27 -185 -29 -304 -5 -253 40 -346 237 -493 51 -37 109 -76 129
-87 32 -17 36 -23 31 -45 -4 -14 -7 -73 -7 -133 l1 -107 -27 51 c-56 110 -176
195 -335 237 -124 33 -163 43 -195 48 -19 3 -57 9 -85 14 -146 27 -443 30
-516 6 -8 -3 -32 -8 -54 -11 -22 -3 -67 -13 -100 -21 -33 -9 -67 -17 -75 -19
-8 -2 -42 -12 -74 -24 -124 -44 -136 -91 -53 -213 85 -125 233 -287 337 -369
65 -51 167 -119 179 -119 6 0 11 -3 11 -7 0 -5 10 -13 23 -19 12 -6 76 -39
143 -72 195 -99 305 -133 424 -128 88 3 146 26 273 109 112 73 164 124 186
182 l18 49 23 -50 c46 -102 68 -177 105 -355 13 -62 19 -158 19 -309 l1 -175
35 3 c63 5 80 12 86 36 14 58 7 317 -12 434 l-5 33 28 -14 c30 -15 69 -26 118
-34 17 -2 36 -6 43 -8 7 -3 57 -8 111 -11 169 -10 265 29 399 164 136 137 293
354 369 512 113 232 185 583 130 637 -40 41 -250 12 -482 -65 -207 -69 -492
-250 -671 -427 -114 -113 -163 -203 -166 -306 0 -27 -2 -48 -5 -46 -10 11 -47
130 -59 197 -17 84 -27 266 -18 321 5 29 12 38 39 48 59 21 238 171 295 246
20 27 47 90 61 145 11 42 15 250 5 295 -2 11 -7 45 -11 75 -18 146 -68 345
-115 459 -68 167 -250 437 -323 482 -38 23 -43 23 -80 3z"/>
</g>
</svg>
